<svg width="100" height="200" viewBox="0 0 100 200" fill="none" xmlns="http://www.w3.org/2000/svg">
<path fill-rule="evenodd" clip-rule="evenodd" d="M10 50C10 27.9086 27.9086 10 50 10C72.0914 10 90 27.9086 90 50V150C90 172.091 72.0914 190 50 190C27.9086 190 10 172.091 10 150V50ZM0 50C0 22.3858 22.3858 0 50 0C77.6142 0 100 22.3858 100 50V150C100 177.614 77.6142 200 50 200C22.3858 200 0 177.614 0 150V50ZM50 75C36.1929 75 25 86.1929 25 100V150C25 163.807 36.1929 175 50 175C63.8071 175 75 163.807 75 150V100C75 86.1929 63.8071 75 50 75Z" fill="white"/>
</svg>
