<?xml version="1.0" encoding="utf-8"?>
<svg width="49" height="49" viewBox="0 0 49 49" fill="none" version="1.2" baseProfile="tiny-ps" xmlns="http://www.w3.org/2000/svg">
  <title>justifi-network</title>
  <path d="M0 0H49V49H0V0Z" fill="#3460FE" />
  <path fill-rule="evenodd" d="M13.6555 27.9999L13.6555 18.5454H18.0191L18.0191 27.9999C18.0191 29.836 17.5537 31.3581 16.7436 32.5733C15.9426 33.7748 14.8902 34.5486 13.9042 35.0417C12.9268 35.5306 11.9757 35.7643 11.2874 35.8791C10.9381 35.9374 10.6422 35.9674 10.4251 35.983C10.3162 35.9908 10.2261 35.995 10.1577 35.9973C10.1235 35.9985 10.0947 35.9991 10.0716 35.9995L10.0413 35.9999L10.0294 36L10.0243 36L10.0219 36C10.0219 36 10.0197 36 10.0192 33.8182C10.0187 31.6364 10.0166 31.6364 10.0166 31.6364L10.0147 31.6364L10.0111 31.6364L10.0056 31.6364L10.0002 31.6365C10.0002 31.6365 10.0027 31.6367 10.0111 31.6364C10.028 31.6358 10.0631 31.6341 10.1133 31.6306C10.2144 31.6233 10.373 31.6078 10.5692 31.575C10.9718 31.5079 11.4753 31.3776 11.9523 31.139C12.4209 30.9047 12.823 30.5875 13.1129 30.1527C13.3937 29.7316 13.6555 29.0722 13.6555 27.9999Z" fill="white" />
  <path d="M13.6555 12H15.8373L18.0191 14.1818V16.3636H13.6555V12Z" fill="white" />
  <path d="M30.3827 35.9998H39.8372V31.6362H37.6339C38.1156 30.6023 38.3826 29.3913 38.3826 27.9999V18.5404H34.019V27.9999C34.019 29.0733 33.757 29.7331 33.4763 30.1542C33.1865 30.5889 32.7846 30.9059 32.3163 31.1399C31.8395 31.3782 31.3362 31.5082 30.9337 31.5752C30.7376 31.6078 30.579 31.6232 30.4779 31.6304C30.4338 31.6336 30.4013 31.6355 30.3827 31.6362C30.3641 31.6355 30.332 31.6336 30.2879 31.6304C30.1868 31.6232 30.0282 31.6077 29.8321 31.5751C29.4295 31.508 28.9262 31.378 28.4493 31.1395C27.9809 30.9054 27.5789 30.5883 27.289 30.1536C27.0083 29.7325 26.7464 29.0729 26.7464 27.9999L26.7464 18.5404H22.3827V18.5454H20.2009V22.909H22.3827L22.3827 27.9999C22.3827 29.8363 22.8481 31.3587 23.6582 32.574C24.4593 33.7757 25.5118 34.5495 26.498 35.0425C27.4756 35.5313 28.4268 35.7647 29.1151 35.8794C29.4645 35.9376 29.7604 35.9675 29.9775 35.983C30.0864 35.9907 30.1766 35.9949 30.2449 35.9972C30.2791 35.9983 30.308 35.999 30.3311 35.9994L30.3827 35.9998Z" fill="white" />
</svg>