<svg
  width="1320"
  height="494"
  viewBox="0 0 1320 494"
  fill="none"
  xmlns="http://www.w3.org/2000/svg"
>
  <path
    fill-rule="evenodd"
    clip-rule="evenodd"
    d="M1026.66 108.547L1026.66 396.372L953.354 396.372L953.354 108.547L1026.66 108.547Z"
    fill="white"
  />
  <path
    fill-rule="evenodd"
    clip-rule="evenodd"
    d="M1319.91 108.547L1319.91 396.372L1246.59 396.372L1246.59 108.547L1319.91 108.547Z"
    fill="white"
  />
  <path
    d="M1173.19 108.547H1209.94V180.503H1173.19L1173.19 396.371H1099.88L1099.88 180.503H1063.32V108.547H1099.88V108.5C1099.91 84.2149 1106.23 63.6178 1117.56 46.9632C1128.74 30.534 1143.37 20.0292 1156.89 13.4013C1170.26 6.84352 1183.18 3.74314 1192.46 2.22631C1197.18 1.45371 1201.2 1.05345 1204.18 0.844611C1205.67 0.739756 1206.93 0.68193 1207.9 0.650226C1208.38 0.634351 1208.8 0.624973 1209.14 0.619528L1209.6 0.614084L1209.78 0.612986L1209.9 0.612671C1209.9 0.612671 1209.94 0.612671 1209.94 36.5907C1209.94 72.5688 1209.97 72.5688 1209.97 72.5688L1210.01 72.5687L1210.07 72.5686L1210.18 72.5679L1210.32 72.5663L1210.37 72.5653L1210.34 72.5664C1210.23 72.5698 1209.91 72.5823 1209.4 72.6179C1208.37 72.6902 1206.66 72.8521 1204.51 73.2038C1200.03 73.9356 1194.63 75.3325 1189.66 77.7692C1184.83 80.1359 1181.12 83.1228 1178.52 86.9313C1176.09 90.5095 1173.21 96.8837 1173.19 108.547Z"
    fill="white"
  />
  <path
    fill-rule="evenodd"
    clip-rule="evenodd"
    d="M61.412 264.452L61.412 108.547L134.722 108.547L134.722 264.452C134.722 294.73 126.903 319.83 113.293 339.868C99.835 359.68 82.1547 372.441 65.5898 380.573C49.1682 388.634 33.1901 392.487 21.6264 394.381C15.7578 395.343 10.787 395.838 7.14 396.094C5.31028 396.223 3.79573 396.293 2.64762 396.331C2.07301 396.349 1.5885 396.36 1.20041 396.367L0.690688 396.373L0.491083 396.374L0.405322 396.374L0.365972 396.374C0.365972 396.374 0.328993 396.374 0.320048 360.396C0.311103 324.418 0.276373 324.418 0.276373 324.418L0.243724 324.418L0.184634 324.419L0.0911126 324.419L0.000515444 324.42C0.000515444 324.42 0.0433262 324.423 0.184634 324.419C0.468369 324.409 1.05719 324.381 1.90025 324.322C3.59879 324.202 6.26453 323.946 9.55967 323.407C16.3236 322.299 24.7822 320.151 32.7974 316.217C40.6693 312.352 47.4257 307.122 52.2957 299.952C57.0125 293.008 61.412 282.135 61.412 264.452Z"
    fill="white"
  />
  <path
    d="M880.044 180.503L880.044 300.428C880.044 307.604 882.018 310.833 883.465 312.609C885.373 314.95 888.741 317.469 894.147 319.681C899.52 321.879 905.403 323.15 910.297 323.819C912.649 324.14 914.546 324.292 915.738 324.362C916.329 324.397 916.724 324.411 916.901 324.416L916.818 324.416L916.768 324.416L916.74 324.416C916.74 324.416 916.711 324.416 916.699 360.394C916.688 396.372 916.657 396.372 916.657 396.372L916.624 396.372L916.554 396.372L916.392 396.371L915.985 396.367C915.677 396.362 915.296 396.355 914.847 396.343C913.95 396.318 912.775 396.273 911.36 396.19C908.543 396.024 904.713 395.706 900.192 395.088C891.34 393.879 878.896 391.398 865.941 386.098C853.02 380.811 838.06 372.085 826.222 357.562C813.924 342.475 806.734 323.223 806.734 300.428L806.733 180.503H770.078V108.547H806.733L806.733 0.612755L880.044 0.612671L880.044 108.547H916.699V180.503H880.044Z"
    fill="white"
  />
  <path
    d="M916.994 324.417C917.024 324.418 916.988 324.419 916.901 324.416L916.994 324.417Z"
    fill="white"
  />
  <path
    d="M244.688 108.465C244.688 108.465 244.688 168.499 244.688 264.452C244.688 360.406 342.435 360.394 342.435 360.394C342.435 360.394 440.182 360.427 440.182 264.452C440.182 168.478 440.182 108.465 440.182 108.465"
    stroke="white"
    stroke-width="6"
  />
  <path
    d="M171.058 108.547V180.503H207.394L207.394 264.534C207.394 294.817 215.212 319.921 228.823 339.962C242.281 359.777 259.964 372.538 276.532 380.668C292.956 388.727 308.936 392.577 320.501 394.467C326.37 395.427 331.342 395.92 334.989 396.175C336.819 396.304 338.334 396.373 339.482 396.41C340.057 396.429 340.541 396.44 340.929 396.446C341.219 396.449 341.507 396.451 341.796 396.451L500.635 396.453V324.497H463.62C471.713 307.449 476.198 287.478 476.198 264.534V108.547H402.888V264.534C402.888 282.235 398.486 293.114 393.77 300.059C388.902 307.227 382.149 312.454 374.282 316.313C366.271 320.243 357.815 322.386 351.053 323.491C347.759 324.029 345.094 324.283 343.397 324.402C342.655 324.454 342.113 324.478 341.8 324.49C341.488 324.478 340.945 324.453 340.204 324.402C338.505 324.283 335.84 324.027 332.546 323.489C325.783 322.383 317.326 320.238 309.314 316.307C301.445 312.445 294.691 307.218 289.822 300.049C285.105 293.105 280.704 282.228 280.704 264.534L280.704 108.547H171.058Z"
    fill="white"
  />
  <path d="M61.412 0.612671H98.0671L134.722 36.5907V72.5688H61.412V0.612671Z" fill="white" />
  <path d="M953.354 0.612671H990.009L1026.66 36.5907V72.5688H953.354V0.612671Z" fill="white" />
  <path d="M1246.6 0.612671H1277.19L1320 36.5907V72.5688H1246.6V0.612671Z" fill="white" />
  <path
    fill-rule="evenodd"
    clip-rule="evenodd"
    d="M615.745 209.695C618.691 212.484 625.171 216.481 638.411 216.481C667.935 216.481 693.529 225.976 711.965 243.425C730.145 260.632 739.213 283.617 739.213 306.426C739.213 329.235 730.145 352.22 711.965 369.427C693.529 386.877 667.935 396.371 638.411 396.371H540.664V324.415H638.411C651.652 324.415 658.131 320.418 661.077 317.63C664.279 314.599 665.902 310.601 665.902 306.426C665.902 302.252 664.279 298.253 661.077 295.222C658.131 292.434 651.652 288.437 638.411 288.437C608.887 288.437 583.294 278.942 564.858 261.493C546.678 244.286 537.61 221.301 537.609 198.492C537.609 175.683 546.677 152.698 564.857 135.491C583.294 118.042 608.887 108.547 638.411 108.547H736.158V180.503H638.411C625.17 180.503 618.69 184.5 615.745 187.288C612.543 190.319 610.92 194.317 610.92 198.491C610.92 202.666 612.543 206.664 615.745 209.695Z"
    fill="white"
  />
  <path
    d="M18.2816 493.346C14.9267 493.346 11.7086 493.106 8.62755 492.627C5.61492 492.147 3.11581 491.565 1.13022 490.881V481.432C3.45816 482.322 6.02574 483.007 8.83295 483.486C11.6402 483.965 14.3104 484.205 16.8438 484.205C20.678 484.205 23.4168 483.863 25.06 483.178C26.7033 482.493 27.5249 481.158 27.5249 479.173C27.5249 477.735 27.0114 476.605 25.9844 475.783C25.0258 474.962 23.5537 474.209 21.5681 473.524C19.651 472.839 17.1861 472.018 14.1735 471.059C11.2978 470.101 8.79872 469.073 6.67619 467.978C4.55366 466.814 2.91041 465.342 1.74644 463.562C0.582472 461.782 0.000488281 459.454 0.000488281 456.578C0.000488281 452.127 1.6095 448.704 4.82753 446.308C8.04556 443.843 13.215 442.61 20.3357 442.61C23.1429 442.61 25.8132 442.816 28.3465 443.227C30.8799 443.637 33.0366 444.151 34.8168 444.767V454.113C32.8997 453.36 30.7772 452.778 28.4492 452.367C26.1898 451.956 24.0672 451.751 22.0816 451.751C18.5213 451.751 15.8168 452.059 13.9681 452.675C12.1879 453.291 11.2978 454.524 11.2978 456.373C11.2978 458.29 12.2222 459.659 14.0708 460.481C15.9879 461.234 19.0348 462.295 23.2114 463.664C27.0456 464.828 30.0925 466.061 32.352 467.362C34.6114 468.663 36.2204 470.237 37.179 472.086C38.206 473.866 38.7195 476.194 38.7195 479.07C38.7195 483.863 36.9736 487.457 33.4817 489.854C29.9898 492.182 24.9231 493.346 18.2816 493.346Z"
    fill="white"
  />
  <path
    d="M71.5043 493.346C62.7403 493.346 56.3042 491.155 52.1961 486.773C48.1565 482.391 46.1366 476.126 46.1366 467.978C46.1366 459.83 48.1907 453.565 52.2988 449.183C56.4069 444.801 62.8088 442.61 71.5043 442.61C80.2683 442.61 86.7043 444.801 90.8125 449.183C94.9206 453.565 96.9747 459.83 96.9747 467.978C96.9747 476.126 94.9206 482.391 90.8125 486.773C86.7728 491.155 80.3368 493.346 71.5043 493.346ZM71.5043 483.897C76.6395 483.897 80.2683 482.665 82.3908 480.2C84.5818 477.666 85.6773 473.592 85.6773 467.978C85.6773 462.364 84.5818 458.324 82.3908 455.859C80.2683 453.394 76.6395 452.162 71.5043 452.162C66.4376 452.162 62.8088 453.394 60.6178 455.859C58.4952 458.324 57.434 462.364 57.434 467.978C57.434 473.592 58.4952 477.666 60.6178 480.2C62.8088 482.665 66.4376 483.897 71.5043 483.897Z"
    fill="white"
  />
  <path
    d="M110.845 492.319V452.367H103.759V443.637H110.845V437.681C110.845 432.819 112.18 428.917 114.851 425.972C117.589 422.96 121.629 421.453 126.97 421.453C128.955 421.453 130.77 421.625 132.413 421.967C134.056 422.241 135.562 422.652 136.932 423.199V431.21C134.809 430.457 132.652 430.081 130.461 430.081C127.243 430.081 125.018 430.663 123.786 431.827C122.553 432.99 121.937 434.976 121.937 437.783V443.637H134.672L134.159 452.367H121.937V492.319H110.845Z"
    fill="white"
  />
  <path
    d="M160.356 493.346C155.152 493.346 151.25 491.976 148.648 489.238C146.115 486.43 144.848 482.63 144.848 477.837V452.367H137.659V443.637H144.848V432.443L155.94 429.054V443.637H168.88L168.162 452.367H155.94V477.221C155.94 480.028 156.59 482.014 157.891 483.178C159.192 484.274 161.315 484.821 164.259 484.821C166.107 484.821 168.059 484.479 170.113 483.794V491.702C167.443 492.798 164.19 493.346 160.356 493.346Z"
    fill="white"
  />
  <path
    d="M187.454 492.319L174.616 443.637H185.81L194.232 479.07L203.783 449.594V443.637H212.308L222.886 479.07L231.308 443.637H242.4L229.665 492.319H219.086L208.713 460.481L198.135 492.319H187.454Z"
    fill="white"
  />
  <path
    d="M263.882 493.346C260.801 493.346 257.926 492.798 255.255 491.702C252.654 490.607 250.565 488.964 248.99 486.773C247.416 484.513 246.628 481.74 246.628 478.454C246.628 473.798 248.203 470.066 251.353 467.259C254.571 464.383 259.5 462.946 266.142 462.946H281.753V460.789C281.753 458.461 281.376 456.612 280.623 455.243C279.938 453.873 278.637 452.881 276.72 452.264C274.872 451.648 272.133 451.34 268.504 451.34C262.753 451.34 257.378 452.196 252.38 453.908V445.589C254.571 444.699 257.241 443.98 260.39 443.432C263.54 442.884 266.929 442.61 270.558 442.61C277.679 442.61 283.088 444.048 286.785 446.924C290.551 449.8 292.434 454.49 292.434 460.994V492.319H282.882L282.164 487.389C280.178 489.306 277.713 490.778 274.769 491.805C271.893 492.832 268.264 493.346 263.882 493.346ZM266.861 485.335C270.216 485.335 273.126 484.787 275.591 483.692C278.124 482.528 280.178 480.987 281.753 479.07V470.546H266.347C263.061 470.546 260.664 471.196 259.158 472.497C257.72 473.729 257.001 475.646 257.001 478.248C257.001 480.782 257.857 482.596 259.569 483.692C261.281 484.787 263.711 485.335 266.861 485.335Z"
    fill="white"
  />
  <path
    d="M304.848 492.319V443.637H315.118L315.735 449.286C318.063 447.78 320.836 446.41 324.054 445.178C327.272 443.945 330.455 443.09 333.605 442.61V451.135C331.688 451.477 329.6 451.991 327.34 452.675C325.149 453.291 323.061 454.01 321.075 454.832C319.09 455.585 317.412 456.373 316.043 457.194V492.319H304.848Z"
    fill="white"
  />
  <path
    d="M364.4 493.346C355.91 493.346 349.337 491.257 344.681 487.081C340.025 482.904 337.697 476.502 337.697 467.875C337.697 460.07 339.683 453.908 343.654 449.389C347.625 444.87 353.65 442.61 361.73 442.61C369.124 442.61 374.67 444.562 378.367 448.464C382.133 452.299 384.016 457.263 384.016 463.356V472.394H348.378C348.926 477.119 350.638 480.371 353.513 482.151C356.389 483.931 360.771 484.821 366.659 484.821C369.124 484.821 371.658 484.582 374.259 484.102C376.861 483.623 379.121 483.007 381.038 482.254V490.47C378.847 491.429 376.313 492.147 373.438 492.627C370.63 493.106 367.618 493.346 364.4 493.346ZM348.378 465.102H374.157V461.713C374.157 458.358 373.232 455.756 371.384 453.908C369.535 451.991 366.42 451.032 362.038 451.032C356.834 451.032 353.239 452.162 351.254 454.421C349.337 456.681 348.378 460.241 348.378 465.102Z"
    fill="white"
  />
  <path
    d="M440.151 493.346C433.031 493.346 427.313 491.805 423 488.724C418.686 485.574 416.53 481.398 416.53 476.194C416.53 471.538 417.899 467.601 420.638 464.383C423.445 461.165 427.245 458.255 432.038 455.654C429.368 453.257 427.211 450.895 425.568 448.567C423.993 446.239 423.205 443.5 423.205 440.351C423.205 436.037 424.746 432.443 427.827 429.567C430.908 426.623 435.153 425.151 440.562 425.151C445.903 425.151 450.079 426.554 453.092 429.362C456.173 432.1 457.714 435.763 457.714 440.351C457.714 443.911 456.858 446.958 455.146 449.491C453.434 452.025 450.696 454.524 446.93 456.989L462.13 472.497C463.225 470.169 463.773 467.43 463.773 464.281V462.535H472.297V464.486C472.297 467.088 471.955 469.655 471.27 472.189C470.586 474.654 469.661 476.81 468.497 478.659L476.816 487.081L470.038 493.243L462.643 485.848C460.11 488.45 456.926 490.367 453.092 491.6C449.258 492.764 444.944 493.346 440.151 493.346ZM439.946 452.162C442.89 450.245 445.081 448.533 446.519 447.027C447.957 445.52 448.676 443.466 448.676 440.864C448.676 438.468 448.025 436.585 446.724 435.216C445.492 433.778 443.438 433.059 440.562 433.059C437.618 433.059 435.495 433.812 434.195 435.318C432.894 436.825 432.243 438.673 432.243 440.864C432.243 442.987 432.859 444.904 434.092 446.616C435.393 448.259 437.344 450.108 439.946 452.162ZM440.151 485.54C446.998 485.54 452.236 483.589 455.865 479.686L438.714 462.329C434.879 463.904 432.004 465.787 430.086 467.978C428.238 470.101 427.313 472.771 427.313 475.989C427.313 479.138 428.512 481.535 430.908 483.178C433.304 484.753 436.386 485.54 440.151 485.54Z"
    fill="white"
  />
  <path
    d="M510.856 492.319V443.637H521.126L521.64 448.773C523.831 447.061 526.433 445.623 529.445 444.459C532.526 443.227 535.916 442.61 539.613 442.61C545.912 442.61 550.499 444.082 553.375 447.027C556.251 449.971 557.689 454.558 557.689 460.789V492.319H546.597V461.302C546.597 457.537 545.809 454.9 544.234 453.394C542.728 451.888 539.852 451.135 535.607 451.135C533.074 451.135 530.575 451.648 528.11 452.675C525.714 453.702 523.694 455.037 522.051 456.681V492.319H510.856Z"
    fill="white"
  />
  <path
    d="M593.877 493.346C585.387 493.346 578.814 491.257 574.158 487.081C569.502 482.904 567.174 476.502 567.174 467.875C567.174 460.07 569.16 453.908 573.131 449.389C577.102 444.87 583.127 442.61 591.207 442.61C598.601 442.61 604.147 444.562 607.845 448.464C611.61 452.299 613.493 457.263 613.493 463.356V472.394H577.855C578.403 477.119 580.115 480.371 582.99 482.151C585.866 483.931 590.248 484.821 596.136 484.821C598.601 484.821 601.135 484.582 603.736 484.102C606.338 483.623 608.598 483.007 610.515 482.254V490.47C608.324 491.429 605.791 492.147 602.915 492.627C600.108 493.106 597.095 493.346 593.877 493.346ZM577.855 465.102H603.634V461.713C603.634 458.358 602.709 455.756 600.861 453.908C599.012 451.991 595.897 451.032 591.515 451.032C586.311 451.032 582.717 452.162 580.731 454.421C578.814 456.681 577.855 460.241 577.855 465.102Z"
    fill="white"
  />
  <path
    d="M642.98 493.346C637.777 493.346 633.874 491.976 631.272 489.238C628.739 486.43 627.472 482.63 627.472 477.837V452.367H620.283V443.637H627.472V432.443L638.564 429.054V443.637H651.505L650.786 452.367H638.564V477.221C638.564 480.028 639.215 482.014 640.515 483.178C641.816 484.274 643.939 484.821 646.883 484.821C648.732 484.821 650.683 484.479 652.737 483.794V491.702C650.067 492.798 646.815 493.346 642.98 493.346Z"
    fill="white"
  />
  <path
    d="M670.078 492.319L657.24 443.637H668.435L676.856 479.07L686.408 449.594V443.637H694.932L705.51 479.07L713.932 443.637H725.024L712.289 492.319H701.71L691.337 460.481L680.759 492.319H670.078Z"
    fill="white"
  />
  <path
    d="M754.62 493.346C745.856 493.346 739.42 491.155 735.312 486.773C731.272 482.391 729.252 476.126 729.252 467.978C729.252 459.83 731.307 453.565 735.415 449.183C739.523 444.801 745.925 442.61 754.62 442.61C763.384 442.61 769.82 444.801 773.928 449.183C778.036 453.565 780.091 459.83 780.091 467.978C780.091 476.126 778.036 482.391 773.928 486.773C769.889 491.155 763.453 493.346 754.62 493.346ZM754.62 483.897C759.755 483.897 763.384 482.665 765.507 480.2C767.698 477.666 768.793 473.592 768.793 467.978C768.793 462.364 767.698 458.324 765.507 455.859C763.384 453.394 759.755 452.162 754.62 452.162C749.553 452.162 745.925 453.394 743.734 455.859C741.611 458.324 740.55 462.364 740.55 467.978C740.55 473.592 741.611 477.666 743.734 480.2C745.925 482.665 749.553 483.897 754.62 483.897Z"
    fill="white"
  />
  <path
    d="M790.983 492.319V443.637H801.253L801.869 449.286C804.197 447.78 806.97 446.41 810.188 445.178C813.406 443.945 816.59 443.09 819.74 442.61V451.135C817.822 451.477 815.734 451.991 813.475 452.675C811.284 453.291 809.195 454.01 807.21 454.832C805.224 455.585 803.547 456.373 802.177 457.194V492.319H790.983Z"
    fill="white"
  />
  <path
    d="M827.892 492.319V423.097H839.086V463.151L859.524 443.637H872.362L852.54 463.254L873.492 492.319H861.681L845.556 469.21L839.086 475.373V492.319H827.892Z"
    fill="white"
  />
  <path
    d="M922.951 493.346C919.596 493.346 916.378 493.106 913.297 492.627C910.285 492.147 907.785 491.565 905.8 490.881V481.432C908.128 482.322 910.695 483.007 913.503 483.486C916.31 483.965 918.98 484.205 921.513 484.205C925.348 484.205 928.086 483.863 929.73 483.178C931.373 482.493 932.195 481.158 932.195 479.173C932.195 477.735 931.681 476.605 930.654 475.783C929.695 474.962 928.223 474.209 926.238 473.524C924.321 472.839 921.856 472.018 918.843 471.059C915.967 470.101 913.468 469.073 911.346 467.978C909.223 466.814 907.58 465.342 906.416 463.562C905.252 461.782 904.67 459.454 904.67 456.578C904.67 452.127 906.279 448.704 909.497 446.308C912.715 443.843 917.885 442.61 925.005 442.61C927.812 442.61 930.483 442.816 933.016 443.227C935.549 443.637 937.706 444.151 939.486 444.767V454.113C937.569 453.36 935.447 452.778 933.119 452.367C930.859 451.956 928.737 451.751 926.751 451.751C923.191 451.751 920.486 452.059 918.638 452.675C916.858 453.291 915.967 454.524 915.967 456.373C915.967 458.29 916.892 459.659 918.74 460.481C920.658 461.234 923.704 462.295 927.881 463.664C931.715 464.828 934.762 466.061 937.022 467.362C939.281 468.663 940.89 470.237 941.849 472.086C942.876 473.866 943.389 476.194 943.389 479.07C943.389 483.863 941.643 487.457 938.151 489.854C934.659 492.182 929.593 493.346 922.951 493.346Z"
    fill="white"
  />
  <path
    d="M976.174 493.346C967.41 493.346 960.974 491.155 956.866 486.773C952.826 482.391 950.806 476.126 950.806 467.978C950.806 459.83 952.86 453.565 956.968 449.183C961.077 444.801 967.478 442.61 976.174 442.61C984.938 442.61 991.374 444.801 995.482 449.183C999.59 453.565 1001.64 459.83 1001.64 467.978C1001.64 476.126 999.59 482.391 995.482 486.773C991.442 491.155 985.006 493.346 976.174 493.346ZM976.174 483.897C981.309 483.897 984.938 482.665 987.06 480.2C989.251 477.666 990.347 473.592 990.347 467.978C990.347 462.364 989.251 458.324 987.06 455.859C984.938 453.394 981.309 452.162 976.174 452.162C971.107 452.162 967.478 453.394 965.287 455.859C963.165 458.324 962.104 462.364 962.104 467.978C962.104 473.592 963.165 477.666 965.287 480.2C967.478 482.665 971.107 483.897 976.174 483.897Z"
    fill="white"
  />
  <path
    d="M1024.66 493.346C1020.68 493.346 1017.67 492.387 1015.62 490.47C1013.56 488.484 1012.54 485.232 1012.54 480.713V423.097H1023.73V479.686C1023.73 481.603 1024.07 482.904 1024.76 483.589C1025.44 484.274 1026.47 484.616 1027.84 484.616C1029.48 484.616 1031.06 484.41 1032.56 484V492.113C1031.26 492.592 1030 492.901 1028.76 493.038C1027.6 493.243 1026.23 493.346 1024.66 493.346Z"
    fill="white"
  />
  <path
    d="M1056.28 493.346C1050.46 493.346 1045.97 491.737 1042.82 488.519C1039.74 485.301 1038.2 480.576 1038.2 474.346V443.637H1049.39V474.346C1049.39 477.974 1050.28 480.645 1052.07 482.356C1053.85 484.068 1056.58 484.924 1060.28 484.924C1063.02 484.924 1065.55 484.41 1067.88 483.383C1070.21 482.356 1072.23 480.987 1073.94 479.275V443.637H1085.03V492.319H1074.87L1074.35 487.286C1072.16 488.998 1069.56 490.436 1066.55 491.6C1063.53 492.764 1060.11 493.346 1056.28 493.346Z"
    fill="white"
  />
  <path
    d="M1116.68 493.346C1111.47 493.346 1107.57 491.976 1104.97 489.238C1102.44 486.43 1101.17 482.63 1101.17 477.837V452.367H1093.98V443.637H1101.17V432.443L1112.26 429.054V443.637H1125.2L1124.48 452.367H1112.26V477.221C1112.26 480.028 1112.91 482.014 1114.21 483.178C1115.51 484.274 1117.64 484.821 1120.58 484.821C1122.43 484.821 1124.38 484.479 1126.43 483.794V491.702C1123.76 492.798 1120.51 493.346 1116.68 493.346Z"
    fill="white"
  />
  <path
    d="M1139.11 433.47V424.226H1151.33V433.47H1139.11ZM1140.03 492.319V452.162H1132.64L1133.66 443.637H1151.22V492.319H1140.03Z"
    fill="white"
  />
  <path
    d="M1187.6 493.346C1178.83 493.346 1172.4 491.155 1168.29 486.773C1164.25 482.391 1162.23 476.126 1162.23 467.978C1162.23 459.83 1164.28 453.565 1168.39 449.183C1172.5 444.801 1178.9 442.61 1187.6 442.61C1196.36 442.61 1202.8 444.801 1206.91 449.183C1211.01 453.565 1213.07 459.83 1213.07 467.978C1213.07 476.126 1211.01 482.391 1206.91 486.773C1202.87 491.155 1196.43 493.346 1187.6 493.346ZM1187.6 483.897C1192.73 483.897 1196.36 482.665 1198.48 480.2C1200.68 477.666 1201.77 473.592 1201.77 467.978C1201.77 462.364 1200.68 458.324 1198.48 455.859C1196.36 453.394 1192.73 452.162 1187.6 452.162C1182.53 452.162 1178.9 453.394 1176.71 455.859C1174.59 458.324 1173.53 462.364 1173.53 467.978C1173.53 473.592 1174.59 477.666 1176.71 480.2C1178.9 482.665 1182.53 483.897 1187.6 483.897Z"
    fill="white"
  />
  <path
    d="M1223.96 492.319V443.637H1234.23L1234.74 448.773C1236.94 447.061 1239.54 445.623 1242.55 444.459C1245.63 443.227 1249.02 442.61 1252.72 442.61C1259.02 442.61 1263.6 444.082 1266.48 447.027C1269.36 449.971 1270.79 454.558 1270.79 460.789V492.319H1259.7V461.302C1259.7 457.537 1258.91 454.9 1257.34 453.394C1255.83 451.888 1252.96 451.135 1248.71 451.135C1246.18 451.135 1243.68 451.648 1241.21 452.675C1238.82 453.702 1236.8 455.037 1235.16 456.681V492.319H1223.96Z"
    fill="white"
  />
  <path
    d="M1299.56 493.346C1296.21 493.346 1292.99 493.106 1289.91 492.627C1286.9 492.147 1284.4 491.565 1282.41 490.881V481.432C1284.74 482.322 1287.31 483.007 1290.11 483.486C1292.92 483.965 1295.59 484.205 1298.12 484.205C1301.96 484.205 1304.7 483.863 1306.34 483.178C1307.98 482.493 1308.81 481.158 1308.81 479.173C1308.81 477.735 1308.29 476.605 1307.27 475.783C1306.31 474.962 1304.83 474.209 1302.85 473.524C1300.93 472.839 1298.47 472.018 1295.45 471.059C1292.58 470.101 1290.08 469.073 1287.96 467.978C1285.83 466.814 1284.19 465.342 1283.03 463.562C1281.86 461.782 1281.28 459.454 1281.28 456.578C1281.28 452.127 1282.89 448.704 1286.11 446.308C1289.33 443.843 1294.5 442.61 1301.62 442.61C1304.42 442.61 1307.09 442.816 1309.63 443.227C1312.16 443.637 1314.32 444.151 1316.1 444.767V454.113C1314.18 453.36 1312.06 452.778 1309.73 452.367C1307.47 451.956 1305.35 451.751 1303.36 451.751C1299.8 451.751 1297.1 452.059 1295.25 452.675C1293.47 453.291 1292.58 454.524 1292.58 456.373C1292.58 458.29 1293.5 459.659 1295.35 460.481C1297.27 461.234 1300.32 462.295 1304.49 463.664C1308.33 464.828 1311.37 466.061 1313.63 467.362C1315.89 468.663 1317.5 470.237 1318.46 472.086C1319.49 473.866 1320 476.194 1320 479.07C1320 483.863 1318.25 487.457 1314.76 489.854C1311.27 492.182 1306.2 493.346 1299.56 493.346Z"
    fill="white"
  />
</svg>
